<svg width="966" height="730" viewBox="0 0 966 730" fill="none" xmlns="http://www.w3.org/2000/svg">
<path d="M957.681 0H7.52598C3.3695 0 0 3.3694 0 7.52577V722.474C0 726.631 3.3695 730 7.52598 730H957.681C961.837 730 965.207 726.631 965.207 722.474V7.52577C965.207 3.3694 961.837 0 957.681 0Z" fill="white"/>
<path d="M629.995 226.932L620.201 187.661C613.031 158.911 583.911 141.416 555.16 148.586L515.888 158.38C487.137 165.55 469.642 194.669 476.812 223.419L486.606 262.69C493.776 291.44 522.896 308.934 551.647 301.764L590.919 291.971C619.67 284.801 637.165 255.682 629.995 226.932Z" fill="#FFFBE6"/>
<path d="M559.322 214.223L477.228 308.642C462.228 325.893 464.054 352.038 481.305 367.037L575.727 449.129C592.979 464.129 619.123 462.303 634.123 445.051L716.218 350.633C731.217 333.381 729.392 307.237 712.14 292.238L617.719 210.146C600.467 195.146 574.322 196.972 559.322 214.223Z" fill="#F2FCFF"/>
<path d="M646.88 311.432L620.039 320.153C604.852 325.088 588.328 323.787 574.1 316.538C559.872 309.289 549.107 296.686 544.172 281.499L535.451 254.659C530.516 239.473 531.816 222.949 539.066 208.721C546.315 194.494 558.919 183.729 574.106 178.795L600.947 170.073C616.133 165.139 632.658 166.439 646.886 173.688C661.113 180.937 671.879 193.541 676.813 208.727L685.535 235.567C690.469 250.754 689.169 267.278 681.92 281.505C674.671 295.733 662.066 306.498 646.88 311.432V311.432Z" fill="#F9FFF2"/>
<path d="M446.591 285.283C446.591 285.283 442.619 273.759 442.828 262.393C446.865 247.33 451.464 234.578 492.06 219.119C568.025 190.192 652.458 209.231 652.458 219.119C652.458 229.008 578.021 216.768 567.32 225.234C556.619 233.701 635.132 244.088 621.883 252.985C608.635 261.883 576.022 248.125 514.325 260.824C508.905 262.277 504.176 263.287 501.782 267.409C498.719 272.678 499.273 281.207 499.273 281.207C499.273 281.207 501.154 270.859 446.591 285.283Z" fill="url(#paint0_linear)"/>
<path d="M489.36 396.471H489.025L489.025 347.285C489.025 353.157 483.371 357.915 476.396 357.915C469.421 357.915 463.767 353.153 463.767 347.285V341.968C463.767 347.84 458.015 352.598 450.919 352.598C443.823 352.598 438.069 347.84 438.069 341.968V326.017C438.069 326.017 436.075 295.444 438.069 283.039C440.063 270.635 446.689 247.721 454.665 240.519C462.64 233.317 456.347 243.935 469.308 244.933C475.462 245.403 477.762 240.927 479.617 236.449C481.671 231.499 483.185 226.547 488.767 228.291C499.397 231.615 497.315 265.852 498.645 280.031C509.275 284.464 519.153 302.534 522.257 309.18C525.362 315.826 541.753 333.993 541.753 333.993L541.526 334.324C542.516 336.039 542.973 338.011 542.838 339.987C542.703 341.964 541.983 343.855 540.769 345.421C539.555 346.986 537.902 348.154 536.021 348.776C534.14 349.398 532.117 349.446 530.209 348.913C528.919 349.038 527.623 348.746 526.511 348.081C519.599 344.358 511.176 328.232 511.176 328.232L510.29 329.229L510.29 396.471H509.959C509.37 398.755 508.039 400.779 506.174 402.224C504.309 403.669 502.017 404.453 499.658 404.453C497.299 404.453 495.007 403.669 493.142 402.224C491.277 400.779 489.946 398.755 489.357 396.471H489.36Z" fill="#FFE5E6"/>
<path d="M438.069 297.049V343.239C438.069 343.239 439.457 353.542 448.815 353.542C458.172 353.542 463.105 346.231 463.437 343.239C463.531 342.406 462.66 313.845 463.437 314.994C463.501 315.021 463.161 342.051 463.437 343.239C464.377 347.335 468.046 358.196 476.397 358.196C482.901 358.196 486.1 355.1 487.825 351.345C489.518 347.685 489.218 322.308 489.218 322.308V350.865L490.354 395.746C490.354 395.746 491.678 404.718 500.656 404.718C509.635 404.718 510.628 395.089 510.628 386.773V322.306C510.628 322.306 514.284 341.247 526.245 347.562C538.205 353.877 547.274 343.034 540.202 333.604" stroke="#333333" stroke-width="2" stroke-linecap="round" stroke-linejoin="round"/>
<path d="M437.967 296.258C437.967 296.258 436.556 277.914 443.141 264.274C449.726 250.633 447.845 234.641 496.764 216.767" stroke="#333333" stroke-width="2" stroke-linecap="round"/>
<path d="M482.372 522.526V459.699" stroke="#333333" stroke-width="5" stroke-linecap="round"/>
<path d="M471.215 522.153L438 488.934" stroke="#333333" stroke-width="5" stroke-linecap="round"/>
<path d="M530.376 485.688L493.634 522.152" stroke="#333333" stroke-width="5" stroke-linecap="round"/>
<path d="M227.618 437.858C227.618 437.858 205.076 446.256 197.209 438.92C189.341 431.584 204.014 415.848 196.147 408.51C188.279 401.172 173.604 416.909 165.737 409.573C157.869 402.236 172.543 386.5 164.675 379.163C156.808 371.827 142.133 387.562 134.265 380.225C126.396 372.888 133.202 349.816 133.202 349.816" stroke="#FFE270" stroke-width="5" stroke-linecap="round"/>
<path d="M237.55 440.986C236.733 444.524 233.19 446.738 229.652 445.921C226.114 445.104 223.9 441.561 224.717 438.023C225.534 434.485 229.077 432.271 232.615 433.088C236.153 433.905 238.367 437.448 237.55 440.986Z" fill="#FFD717"/>
<path d="M225.634 438.235C224.934 441.267 226.831 444.304 229.864 445.004C232.896 445.704 235.933 443.807 236.633 440.774C237.334 437.741 235.436 434.705 232.403 434.005C229.371 433.304 226.334 435.202 225.634 438.235ZM223.8 437.811C224.735 433.762 228.777 431.236 232.827 432.171C236.877 433.106 239.402 437.147 238.467 441.197C237.532 445.247 233.49 447.772 229.441 446.837C225.391 445.902 222.865 441.861 223.8 437.811Z" fill="#333333"/>
<path d="M822.684 170.741L861.254 209.311" stroke="#333333" stroke-width="2"/>
<path d="M841.969 197.552C846.126 197.552 849.495 194.182 849.495 190.026C849.495 185.869 846.126 182.5 841.969 182.5C837.813 182.5 834.443 185.869 834.443 190.026C834.443 194.182 837.813 197.552 841.969 197.552Z" fill="#FF4D4D"/>
<path d="M841.969 196.611C845.606 196.611 848.554 193.663 848.554 190.026C848.554 186.389 845.606 183.44 841.969 183.44C838.332 183.44 835.384 186.389 835.384 190.026C835.384 193.663 838.332 196.611 841.969 196.611Z" stroke="#333333" stroke-width="2"/>
<path d="M331.613 224.833C351.616 224.833 367.832 208.617 367.832 188.615C367.832 168.612 351.616 152.397 331.613 152.397C311.61 152.397 295.395 168.612 295.395 188.615C295.395 208.617 311.61 224.833 331.613 224.833Z" fill="#F2FCFF"/>
<path d="M331.613 212.603C351.097 212.603 366.891 196.809 366.891 177.326C366.891 157.843 351.097 142.049 331.613 142.049C312.129 142.049 296.335 157.843 296.335 177.326C296.335 196.809 312.129 212.603 331.613 212.603Z" stroke="black" stroke-width="2"/>
<path d="M88.4758 211.743L40.1429 250.881L98.2049 273.168L88.4758 211.743Z" fill="#FFFBE6"/>
<path d="M80.9586 210.283L27.4528 253.61L91.7294 278.282L80.9586 210.283Z" stroke="#161615" stroke-width="2" stroke-miterlimit="10"/>
<path d="M824.107 297.382L843.863 331.6C844.902 333.399 847.203 334.016 849.003 332.977L883.221 313.222C885.021 312.183 885.638 309.881 884.598 308.081L864.842 273.864C863.803 272.064 861.502 271.447 859.702 272.486L825.484 292.242C823.684 293.281 823.067 295.582 824.107 297.382Z" fill="white"/>
<path d="M824.921 296.911L844.677 331.129C845.457 332.479 847.183 332.941 848.533 332.162L882.751 312.407C884.101 311.628 884.563 309.901 883.784 308.552L864.028 274.334C863.248 272.984 861.522 272.522 860.172 273.301L825.954 293.056C824.604 293.836 824.142 295.562 824.921 296.911Z" stroke="#333333" stroke-width="2" stroke-linecap="round"/>
<path d="M841.371 302.007L861.127 336.225C862.166 338.025 864.468 338.642 866.268 337.602L900.486 317.847C902.286 316.808 902.902 314.507 901.863 312.707L882.107 278.489C881.068 276.689 878.766 276.073 876.967 277.112L842.748 296.867C840.949 297.906 840.332 300.208 841.371 302.007Z" fill="white"/>
<path d="M842.186 301.537L861.942 335.755C862.721 337.104 864.447 337.567 865.797 336.788L900.015 317.032C901.365 316.253 901.828 314.527 901.048 313.177L881.292 278.96C880.513 277.61 878.787 277.147 877.437 277.926L843.219 297.682C841.869 298.461 841.406 300.187 842.186 301.537Z" stroke="#333333" stroke-width="2" stroke-linecap="round"/>
<path d="M859.546 306.877L879.302 341.094C880.341 342.894 882.643 343.511 884.442 342.472L918.661 322.716C920.46 321.677 921.077 319.376 920.038 317.576L900.282 283.358C899.243 281.559 896.941 280.942 895.141 281.981L860.923 301.736C859.123 302.775 858.507 305.077 859.546 306.877Z" fill="white"/>
<path d="M860.361 306.406L880.117 340.624C880.896 341.974 882.622 342.436 883.972 341.657L918.19 321.901C919.54 321.122 920.002 319.396 919.223 318.046L899.467 283.829C898.688 282.479 896.962 282.016 895.612 282.796L861.394 302.551C860.044 303.33 859.581 305.056 860.361 306.406Z" stroke="#333333" stroke-width="2" stroke-linecap="round"/>
<path d="M893.454 308.713C891.617 306.876 888.639 306.876 886.802 308.713C884.965 310.55 884.965 313.528 886.802 315.365C888.639 317.202 891.617 317.202 893.454 315.365C895.291 313.528 895.291 310.55 893.454 308.713Z" fill="#333333"/>
<path d="M660.632 278.479C660.632 278.479 690.762 288.016 692.973 301.975C695.184 315.935 667.265 320.357 669.476 334.316C671.687 348.275 699.606 343.854 701.817 357.812C704.027 371.771 676.109 376.192 678.32 390.152C680.531 404.111 708.449 399.688 710.66 413.647C712.871 427.605 687.164 445.987 687.164 445.987" stroke="#B2E672" stroke-width="5" stroke-linecap="round"/>
<path d="M652.491 279.456C649.924 276.888 649.924 272.711 652.491 270.143C655.059 267.576 659.237 267.576 661.804 270.143C664.372 272.711 664.372 276.888 661.804 279.456C659.237 282.024 655.059 282.024 652.491 279.456Z" fill="#B2E672"/>
<path d="M661.139 270.808C658.938 268.607 655.357 268.607 653.157 270.808C650.956 273.009 650.956 276.59 653.157 278.791C655.357 280.991 658.938 280.991 661.139 278.791C663.34 276.59 663.34 273.009 661.139 270.808ZM662.47 269.478C665.409 272.417 665.409 277.182 662.47 280.121C659.531 283.06 654.765 283.06 651.826 280.121C648.887 277.182 648.887 272.417 651.826 269.478C654.765 266.539 659.531 266.539 662.47 269.478Z" fill="#333333"/>
<defs>
<linearGradient id="paint0_linear" x1="504.244" y1="251.538" x2="535.823" y2="180.708" gradientUnits="userSpaceOnUse">
<stop stop-color="#FFE5E6"/>
<stop offset="1" stop-color="white"/>
</linearGradient>
</defs>
</svg>
